<svg xmlns="http://www.w3.org/2000/svg" viewBox="0 0 512 512">
  <rect width="512" height="512" rx="96" fill="#111827"/>
  <!-- Dots 3x3 grid — inset to avoid corner clipping -->
  <circle cx="160" cy="160" r="22" fill="white"/>
  <circle cx="256" cy="160" r="22" fill="white"/>
  <circle cx="352" cy="160" r="22" fill="white"/>
  <circle cx="160" cy="256" r="22" fill="white"/>
  <circle cx="256" cy="256" r="22" fill="white"/>
  <circle cx="352" cy="256" r="22" fill="white"/>
  <circle cx="160" cy="352" r="22" fill="white"/>
  <circle cx="256" cy="352" r="22" fill="white"/>
  <circle cx="352" cy="352" r="22" fill="white"/>
  <!-- Lines (blue P1) -->
  <rect x="182" y="152" width="52" height="16" rx="8" fill="#60a5fa"/>
  <rect x="278" y="152" width="52" height="16" rx="8" fill="#60a5fa"/>
  <rect x="152" y="182" width="16" height="52" rx="8" fill="#60a5fa"/>
  <rect x="248" y="182" width="16" height="52" rx="8" fill="#f87171"/>
  <rect x="182" y="248" width="52" height="16" rx="8" fill="#f87171"/>
  <!-- Filled box indicator -->
  <rect x="168" y="168" width="80" height="80" rx="8" fill="#60a5fa" opacity="0.3"/>
</svg>
